<svg id="Layer_1" data-name="Layer 1" xmlns="http://www.w3.org/2000/svg" viewBox="0 0 54 54">
  <defs>
    <style>
      .cls-1 {
        fill: #fff;
      }
    </style>
  </defs>
  <title>icon</title>
  <path class="cls-1" d="M39.37,49.72C35,49.72,28,46.94,17.55,36.45h0C1.91,20.81,3.41,13.08,5.7,9.87c.46-.7,3.23-4.71,7.14-5.43A6.69,6.69,0,0,1,18.49,6c7.29,6,6.63,9,5,12.33-1.08,2.21-2,4.12,3,9.12s6.91,4.07,9.13,3C39,28.87,42,28.22,48,35.5a6.73,6.73,0,0,1,1.6,5.65c-.72,3.91-4.73,6.69-5.42,7.15A8.07,8.07,0,0,1,39.37,49.72Zm-20.06-15C34.62,50,41.07,47.41,42.69,46.26l.1-.07s3.8-2.48,4.33-5.55A4.3,4.3,0,0,0,46,37.09c-5.22-6.34-7-5.47-9.3-4.36-3.13,1.53-6.19,2.32-12-3.47s-5-8.86-3.48-12c1.11-2.27,2-4.07-4.36-9.3a4.28,4.28,0,0,0-3.54-1.09c-3.08.53-5.53,4.3-5.55,4.34l-.07.1C6.59,12.93,4,19.38,19.31,34.68Z"/>
</svg>
