<svg id="Layer_1" data-name="Layer 1" xmlns="http://www.w3.org/2000/svg" viewBox="0 0 54 54">
  <defs>
    <style>
      .cls-1 {
        fill: #fff;
      }
    </style>
  </defs>
  <title>icon</title>
  <path class="cls-1" d="M53.37,37.88a15.22,15.22,0,0,0-2.67-8.62,15.46,15.46,0,0,0-4.76-4.49A11.47,11.47,0,1,0,30.18,8.11a10.62,10.62,0,0,0-1.52,1.76,10.87,10.87,0,0,0-3.32,0A11.47,11.47,0,0,0,6.53,23a11.32,11.32,0,0,0,1.53,1.78A15.46,15.46,0,0,0,3.3,29.26,15.22,15.22,0,0,0,.63,37.88v6.38H11.69V49H42.31V44.26H53.37ZM38.06,7.8a8.64,8.64,0,1,1,0,17.28h-.25a.43.43,0,0,0,0,0,11.22,11.22,0,0,0,.37-1.29.29.29,0,0,0,0-.09c0-.12,0-.24.07-.36a1,1,0,0,0,0-.17c0-.11,0-.21,0-.32l0-.23,0-.28,0-.3c0-.07,0-.15,0-.23s0-.33,0-.5v-.05c0-.18,0-.34,0-.51a.76.76,0,0,0,0-.15l0-.43s0-.06,0-.1a11.4,11.4,0,0,0-6.81-9.31A8.63,8.63,0,0,1,38.06,7.8ZM24,13.11l.08,0,.26-.08.2-.07.15,0,.26-.07a8.79,8.79,0,0,1,4.08,0l.26.07.15,0,.2.06.26.09.08,0a8.66,8.66,0,0,1,5.55,6.76V20a3.11,3.11,0,0,1,0,.32.5.5,0,0,0,0,.12,2.64,2.64,0,0,0,0,.29.62.62,0,0,0,0,.13c0,.12,0,.25,0,.38v0h0c0,.13,0,.25,0,.37a.49.49,0,0,1,0,.12c0,.11,0,.23,0,.35s0,.09,0,.13l0,.23,0,.17c0,.09,0,.18,0,.26s0,.16-.05.24l0,.14-.09.34a.65.65,0,0,0,0,.13l-.06.2a1.56,1.56,0,0,0-.06.15,1.27,1.27,0,0,1-.06.18c0,.09-.07.19-.11.29l-.06.13a2.56,2.56,0,0,1-.11.24v0l0,.09c0,.08-.08.17-.13.25s0,.07,0,.1h0l-.15.26-.07.1c0,.09-.11.18-.17.27l-.12.17-.1.14a1.55,1.55,0,0,1-.13.17l-.09.12-.15.18-.09.1-.15.18a.94.94,0,0,0-.1.1l-.26.26-.16.15-.12.1-.19.17-.1.08-.23.18-.06,0a8.63,8.63,0,0,1-10.29,0l-.07,0-.23-.18-.1-.08-.19-.17a.52.52,0,0,1-.11-.1L21,27.42l-.27-.26-.09-.1-.15-.18-.1-.1-.14-.18-.1-.12L20,26.3a1.13,1.13,0,0,0-.1-.13c0-.05-.08-.11-.11-.17l-.18-.27-.06-.1-.15-.27-.06-.1c0-.08-.08-.17-.13-.26l0-.09h0a2.72,2.72,0,0,1-.11-.25.61.61,0,0,1-.05-.12l-.12-.3-.06-.16-.06-.17c0-.06,0-.12-.06-.19s0-.18-.07-.27a1.46,1.46,0,0,1,0-.2,1.24,1.24,0,0,1,0-.16s0-.13,0-.19,0-.2-.05-.3l0-.16,0-.25s0-.08,0-.12,0-.24,0-.36a.38.38,0,0,0,0-.1c0-.12,0-.25,0-.38a3,3,0,0,1,0-.42v-.11l0-.31a.41.41,0,0,1,0-.11c0-.11,0-.22,0-.33s0,0,0-.07A8.66,8.66,0,0,1,24,13.11ZM7.3,16.44a8.64,8.64,0,0,1,15.1-5.73A11.38,11.38,0,0,0,15.59,20s0,.06,0,.09,0,.29,0,.44v.14c0,.17,0,.35,0,.53s0,.36,0,.54,0,.15,0,.22,0,.2,0,.31,0,.18,0,.27,0,.16,0,.24,0,.21,0,.31l0,.19c0,.11,0,.23.07.34l0,.11A8.94,8.94,0,0,0,16.17,25s0,.05,0,.08h-.25A8.65,8.65,0,0,1,7.3,16.44Zm6.77,18.05a1.3,1.3,0,0,0-.1.15l-.19.32a1.62,1.62,0,0,1-.1.18l-.16.3-.1.18-.15.3-.09.19-.15.32L13,36.6l-.16.39s0,.07,0,.11-.13.33-.19.5a.76.76,0,0,0,0,.11c0,.13-.09.26-.13.39a1.33,1.33,0,0,0-.05.19c0,.11-.07.22-.1.33l-.06.2c0,.11,0,.21-.08.32s0,.14,0,.21-.05.22-.07.33a1.18,1.18,0,0,0,0,.2l-.06.36,0,.17c0,.17,0,.35-.07.53h0c0,.16,0,.32,0,.48H3.46V37.88A12.47,12.47,0,0,1,10.62,26.6a11.34,11.34,0,0,0,7,1.19l.27.37.09.12.27.33.12.14.27.3.14.15.26.25a.47.47,0,0,0,.1.1l-.37.23-.06,0-.35.24-.13.09-.31.22-.1.08-.39.3-.08.07c-.11.08-.21.17-.3.25l-.12.1-.3.27-.08.07c-.12.11-.23.23-.35.35l-.09.09-.27.27-.1.12-.29.32,0,.05-.32.39-.09.11-.23.3-.09.12c-.1.13-.2.27-.29.41S14.16,34.34,14.07,34.49Zm.45,11.72V42.66c0-.16,0-.31,0-.47s0-.1,0-.15,0-.21,0-.32a1.1,1.1,0,0,1,0-.18,2.46,2.46,0,0,1,0-.28l0-.2,0-.26a1.42,1.42,0,0,1,0-.2c0-.06,0-.16,0-.25s0-.14,0-.2,0-.17.05-.24,0-.14.05-.21l.06-.24.06-.21.06-.23a1.72,1.72,0,0,0,.07-.21c0-.07,0-.14.07-.22l.08-.21.08-.21a2.07,2.07,0,0,1,.08-.2l.09-.22.09-.2c0-.06.06-.14.1-.21s.06-.13.1-.2l.1-.2c0-.06.07-.13.1-.2s.07-.13.11-.2a1.18,1.18,0,0,0,.11-.19l.12-.19.12-.19.12-.19.13-.19.13-.18.13-.18.14-.18.14-.18c.05-.06.09-.12.14-.17l.15-.18.15-.17.15-.16L18,34l.16-.16a1.21,1.21,0,0,0,.16-.16l.17-.15.17-.16.17-.15L19,33.1l.18-.15.18-.14.18-.14.19-.13.18-.13.2-.13.19-.13.2-.12.19-.12.21-.12.2-.11.21-.11.2-.1.16-.07a11.44,11.44,0,0,0,10.64,0l.16.07.21.1.21.11.2.11.2.12.2.12.2.12.19.13.19.13.19.13.18.13.19.14.18.14.17.15.18.14.17.15.16.16.17.15c.06.06.11.1.16.16L36,34l.15.16c.06.06.1.12.16.17l.15.17c0,.06.1.12.14.17l.14.18.15.17.13.18.14.19.12.18a1.27,1.27,0,0,1,.13.19l.12.18.12.19.12.2a1.28,1.28,0,0,1,.11.2l.11.2c0,.06.07.13.11.2l.1.2.1.2.09.2.09.2.09.22a1.67,1.67,0,0,1,.08.2,2,2,0,0,1,.08.22l.08.21.07.22c0,.08.05.14.07.21l.06.23a1.66,1.66,0,0,1,.06.21l.06.23a2.09,2.09,0,0,1,.05.21,1.69,1.69,0,0,1,0,.24,1.91,1.91,0,0,1,0,.21c0,.07,0,.17.05.25s0,.14,0,.21a2.17,2.17,0,0,0,0,.25,1.23,1.23,0,0,0,0,.2l0,.28c0,.06,0,.12,0,.18s0,.21,0,.32,0,.1,0,.15,0,.31,0,.47v3.55h-25Zm27.74-4.78c0-.35-.07-.69-.12-1a.88.88,0,0,1,0-.16c0-.12,0-.25-.07-.37a1.06,1.06,0,0,0,0-.19c0-.11,0-.23-.07-.34l0-.2c0-.11,0-.22-.08-.32a1.94,1.94,0,0,1,0-.2c0-.12-.07-.23-.1-.34l-.06-.18c0-.13-.08-.27-.13-.4a.36.36,0,0,0,0-.11l-.18-.5,0-.11c-.05-.13-.1-.26-.16-.39L41,36.42c0-.1-.1-.21-.14-.32l-.09-.18-.16-.3a1.74,1.74,0,0,0-.1-.19l-.16-.3-.1-.17L40,34.64l-.09-.15-.3-.45-.3-.42-.09-.11a2.37,2.37,0,0,0-.23-.3l-.09-.11-.32-.39,0-.05c-.09-.11-.19-.22-.29-.32l-.1-.11L37.91,32l-.08-.09-.36-.35-.08-.07-.3-.27-.11-.1-.3-.25-.08-.07q-.2-.16-.39-.3l-.1-.07-.32-.23-.12-.09-.35-.24-.07,0-.36-.23a.76.76,0,0,0,.09-.09,3.19,3.19,0,0,0,.26-.26l.14-.14.27-.3.12-.14c.1-.11.18-.22.27-.34l.09-.11.27-.37a11.34,11.34,0,0,0,7-1.19,12.46,12.46,0,0,1,7.16,11.28v3.55Z"/>
</svg>
