<svg xmlns="http://www.w3.org/2000/svg" width="48" height="48" viewBox="0 0 48 48"><defs><style>.a{fill:none;stroke:#fff;stroke-miterlimit:10;stroke-width:2px;}</style></defs><g transform="translate(-183 -2907)"><g transform="translate(-125 2791)"><path class="a" d="M346,145a9,9,0,1,0-3.162-17.418,12.484,12.484,0,0,0-24.816,1.49A8,8,0,1,0,317,145h2"/><path class="a" d="M322,129.5a8.5,8.5,0,0,1,8.5-8.5"/><rect class="a" width="20" height="8" transform="translate(322 155)"/><line class="a" x2="10" transform="translate(329 159)"/><line class="a" x2="2" transform="translate(325 159)"/><rect class="a" width="20" height="8" transform="translate(322 143)"/><line class="a" x2="10" transform="translate(329 147)"/><line class="a" x2="2" transform="translate(325 147)"/><line class="a" x2="22" transform="translate(321 138)"/><line class="a" y1="5" transform="translate(332 138)"/><line class="a" y2="4" transform="translate(332 151)"/></g></g></svg>