<svg xmlns="http://www.w3.org/2000/svg" width="48" height="48" viewBox="0 0 48 48"><defs><style>.a{fill:none;stroke:#fff;stroke-miterlimit:10;stroke-width:2px;}</style></defs><g transform="translate(-212 -212)"><rect class="a" width="32" height="32" rx="3" transform="translate(220 220)"/><line class="a" y1="5" transform="translate(224 212)"/><line class="a" y1="5" transform="translate(228 212)"/><line class="a" y1="5" transform="translate(232 212)"/><line class="a" y1="5" transform="translate(236 212)"/><line class="a" y1="5" transform="translate(240 212)"/><line class="a" y1="5" transform="translate(244 212)"/><line class="a" y1="5" transform="translate(248 212)"/><line class="a" y1="5" transform="translate(224 255)"/><line class="a" y1="5" transform="translate(228 255)"/><line class="a" y1="5" transform="translate(232 255)"/><line class="a" y1="5" transform="translate(236 255)"/><line class="a" y1="5" transform="translate(240 255)"/><line class="a" y1="5" transform="translate(244 255)"/><line class="a" y1="5" transform="translate(248 255)"/><line class="a" x2="5" transform="translate(255 224)"/><line class="a" x2="5" transform="translate(255 228)"/><line class="a" x2="5" transform="translate(255 232)"/><line class="a" x2="5" transform="translate(255 236)"/><line class="a" x2="5" transform="translate(255 240)"/><line class="a" x2="5" transform="translate(255 244)"/><line class="a" x2="5" transform="translate(255 248)"/><line class="a" x2="5" transform="translate(212 224)"/><line class="a" x2="5" transform="translate(212 228)"/><line class="a" x2="5" transform="translate(212 232)"/><line class="a" x2="5" transform="translate(212 236)"/><line class="a" x2="5" transform="translate(212 240)"/><line class="a" x2="5" transform="translate(212 244)"/><line class="a" x2="5" transform="translate(212 248)"/><rect class="a" width="24" height="24" transform="translate(224 224)"/><rect class="a" width="8" height="8" transform="translate(232 232)"/><line class="a" x2="16" transform="translate(228 244)"/></g></svg>