<svg xmlns="http://www.w3.org/2000/svg" width="38.285" height="38.285" viewBox="0 0 38.285 38.285"><defs><style>.a{fill:#0e76a8;}.b{fill:#fff;}</style></defs><path class="a" d="M19.142,0A19.143,19.143,0,1,1,0,19.143,19.143,19.143,0,0,1,19.142,0Z" transform="translate(0 0)"/><path class="b" d="M81.952,89.561h3.584V77.613H81.952ZM95.917,77.2a5.38,5.38,0,0,0-4.4,2.038V77.574h-3.6V89.561h3.6V83.079a2.846,2.846,0,0,1,2.827-2.706c1.572,0,1.96,1.336,1.96,2.673v6.514h3.584V82.778C99.888,78.068,97.658,77.2,95.917,77.2Zm-12.189-.78a1.795,1.795,0,1,0-1.795-1.795A1.8,1.8,0,0,0,83.728,76.419Z" transform="translate(-71.165 -63.259)"/></svg>