<svg xmlns="http://www.w3.org/2000/svg" width="22.644" height="21.791" viewBox="0 0 22.644 21.791"><defs><style>.a{fill:#fff;}</style></defs><g transform="translate(3.918 2.168)"><path class="a" d="M21.913,1.75H.732A.733.733,0,0,0,0,2.482V5.734a.733.733,0,0,0,.732.732H21.912a.733.733,0,0,0,.732-.732V2.482A.732.732,0,0,0,21.913,1.75Z" transform="translate(-3.918 -3.918)"/><path class="a" d="M21.913,36.75H.732A.733.733,0,0,0,0,37.482v3.252a.733.733,0,0,0,.732.732H21.912a.733.733,0,0,0,.732-.732V37.482A.732.732,0,0,0,21.913,36.75Z" transform="translate(-3.918 -30.381)"/><path class="a" d="M21.913,71.75H.732A.733.733,0,0,0,0,72.482v3.252a.733.733,0,0,0,.732.732H21.912a.733.733,0,0,0,.732-.732V72.482A.732.732,0,0,0,21.913,71.75Z" transform="translate(-3.918 -56.843)"/></g></svg>