<svg xmlns="http://www.w3.org/2000/svg" width="38.285" height="38.285" viewBox="0 0 38.285 38.285"><defs><style>.a{fill:#55acee;}.b{fill:#f1f2f2;}</style></defs><g transform="translate(0)"><ellipse class="a" cx="19.143" cy="19.143" rx="19.143" ry="19.143" transform="translate(0 0)"/><g transform="translate(8.566 11.612)"><path class="b" d="M47.405,36.174a9.129,9.129,0,0,1-2.628.72,4.588,4.588,0,0,0,2.012-2.531,9.16,9.16,0,0,1-2.906,1.11,4.579,4.579,0,0,0-7.8,4.174,12.989,12.989,0,0,1-9.431-4.781,4.581,4.581,0,0,0,1.416,6.109A4.543,4.543,0,0,1,26,40.4c0,.019,0,.039,0,.058a4.578,4.578,0,0,0,3.671,4.486,4.593,4.593,0,0,1-2.066.079A4.58,4.58,0,0,0,31.877,48.2,9.237,9.237,0,0,1,25.1,50.1,13.012,13.012,0,0,0,45.135,39.134c0-.2,0-.4-.013-.592a9.279,9.279,0,0,0,2.284-2.368Z" transform="translate(-25.103 -34.028)"/></g></g></svg>