<svg xmlns="http://www.w3.org/2000/svg" width="48" height="48" viewBox="0 0 48 48"><defs><style>.a{fill:none;stroke:#fff;stroke-miterlimit:10;stroke-width:2px;}</style></defs><g transform="translate(-416 -2900)"><g transform="translate(12 2784)"><path class="a" d="M442,145a9,9,0,1,0-3.162-17.418,12.484,12.484,0,0,0-24.816,1.49A8,8,0,1,0,413,145h1"/><path class="a" d="M418,129.5a8.5,8.5,0,0,1,8.5-8.5"/><rect class="a" width="22" height="18" rx="2" transform="translate(417 145)"/><path class="a" d="M436,145h-4v-5a4,4,0,0,0-8,0v5h-4v-5a8,8,0,0,1,16,0Z"/><path class="a" d="M425,154l3,3,6-6"/></g></g></svg>