<svg xmlns="http://www.w3.org/2000/svg" xmlns:xlink="http://www.w3.org/1999/xlink" width="82" height="82" viewBox="0 0 82 82"><defs><style>.a,.d{fill:#fff;}.a{stroke:#707070;}.b,.f{fill:none;}.b{stroke:#52c3df;}.c{clip-path:url(#a);}.e{stroke:none;}</style><clipPath id="a"><rect class="a" width="43" height="44" transform="translate(138 148.072)"/></clipPath></defs><g transform="translate(-126 -138.072)"><g class="b" transform="translate(126 138.072)"><circle class="e" cx="41" cy="41" r="41"/><circle class="f" cx="41" cy="41" r="40.5"/></g><g class="c" transform="translate(8 9)"><path class="d" d="M38.667.055a4.292,4.292,0,1,0,3.859,2.392A4.29,4.29,0,0,0,38.667.055ZM21.514,4.341A17.154,17.154,0,0,0,7.746,31.726L12.374,27.1a10.72,10.72,0,0,1,14.74-14.744l4.628-4.628A17.069,17.069,0,0,0,21.514,4.341Zm13.766,6.921-4.628,4.63a10.719,10.719,0,0,1-14.74,14.744l-4.628,4.625a17.152,17.152,0,0,0,24-24ZM4.288,34.357A4.286,4.286,0,1,0,8.5,37.8a4.292,4.292,0,0,0-4.209-3.447Z" transform="translate(137.999 148.742)"/></g></g></svg>