<svg id="Layer_1" data-name="Layer 1" xmlns="http://www.w3.org/2000/svg" viewBox="0 0 54 54">
  <defs>
    <style>
      .cls-1 {
        fill: #fff;
      }
    </style>
  </defs>
  <title>icon</title>
  <g>
    <path class="cls-1" d="M48.63,26,40.7,20.44V5.9A.94.94,0,0,0,39.77,5H14.24a.94.94,0,0,0-.93.94V20.43L5.38,26a1,1,0,0,0-.41.79V48.1A.94.94,0,0,0,5.9,49H48.1A.94.94,0,0,0,49,48.1h0V26.75A.93.93,0,0,0,48.63,26Zm-2.16.77-5.77,4V22.72l5.77,4ZM15.19,6.84H38.83V32.08L27,40.19,15.19,32.08ZM13.31,22.72v8.06l-5.77-4,5.77-4ZM6.85,47.16V28.55L26.47,42.1a.93.93,0,0,0,1.06,0L47.16,28.55V47.16Z"/>
    <path class="cls-1" d="M19.53,12.64H34.48a.94.94,0,0,0,0-1.87H19.53a.94.94,0,1,0,0,1.87Z"/>
    <path class="cls-1" d="M19.53,18.06H34.48a.94.94,0,0,0,0-1.87H19.53a.94.94,0,1,0,0,1.87Z"/>
    <path class="cls-1" d="M19.53,23.47H34.48a.94.94,0,0,0,0-1.87H19.53a.94.94,0,1,0,0,1.87Z"/>
  </g>
</svg>
