<svg xmlns="http://www.w3.org/2000/svg" width="48.182" height="48" viewBox="0 0 48.182 48"><defs><style>.a{fill:none;stroke:#fff;stroke-miterlimit:10;stroke-width:2px;}</style></defs><g transform="translate(-875.818 -2909)"><g transform="translate(760 2889)"><path class="a" d="M126.414,60.414l-6,6a2,2,0,0,1-2.828-2.828l6-6"/><circle class="a" cx="14" cy="14" r="14" transform="translate(121 35)"/><line class="a" y2="18" transform="translate(163 20)"/><line class="a" y2="18" transform="translate(158 27)"/><line class="a" y2="8" transform="translate(143 20)"/><line class="a" y2="6" transform="translate(138 25)"/><line class="a" y2="6" transform="translate(148 31)"/><line class="a" y2="6" transform="translate(148 60)"/><line class="a" y2="9" transform="translate(153 20)"/><line class="a" y2="2" transform="translate(158 47)"/><line class="a" y2="2" transform="translate(153 54)"/><line class="a" y2="5" transform="translate(163 40)"/><line class="a" y2="5" transform="translate(153 58)"/><line class="a" y2="5" transform="translate(158 20)"/><line class="a" y2="5" transform="translate(148 24)"/><line class="a" y2="3" transform="translate(143 30)"/><line class="a" y2="3" transform="translate(138 20)"/><line class="a" y2="5" transform="translate(153 35)"/><line class="a" y2="10" transform="translate(153 42)"/><line class="a" y2="2" transform="translate(153 31)"/><line class="a" y2="2" transform="translate(148 20)"/><line class="a" y2="3" transform="translate(163 47)"/><line class="a" y2="8" transform="translate(158 60)"/><line class="a" y2="7" transform="translate(158 51)"/><line class="a" y2="10" transform="translate(163 52)"/><rect class="a" width="4" height="10" transform="translate(129 44)"/><line class="a" x1="6" transform="translate(136 54)"/><path class="a" d="M136,44h3V54"/><path class="a" d="M125.459,46a10.033,10.033,0,0,0,0,6"/><path class="a" d="M144.541,52a10.033,10.033,0,0,0,0-6"/></g></g></svg>