<svg id="Layer_1" data-name="Layer 1" xmlns="http://www.w3.org/2000/svg" viewBox="0 0 54 54">
  <defs>
    <style>
      .cls-1 {
        fill: #fff;
      }
    </style>
  </defs>
  <title>icon</title>
  <g>
    <path class="cls-1" d="M27,1.67A19.13,19.13,0,0,0,7.88,20.79c0,4.36,3.06,10.82,9.11,19.2,4.41,6.11,8.89,11.1,8.93,11.15L27,52.33l1.08-1.19S32.6,46.11,37,40c6.05-8.38,9.11-14.84,9.11-19.2A19.13,19.13,0,0,0,27,1.67ZM27,48c-5.37-6.18-16.22-20.14-16.22-27.18a16.22,16.22,0,1,1,32.44,0C43.23,27.83,32.37,41.79,27,48Z"/>
    <circle class="cls-1" cx="27" cy="20.79" r="7.2"/>
  </g>
</svg>
