<svg id="logo-dark" xmlns="http://www.w3.org/2000/svg" width="176.909" height="28.893" viewBox="0 0 176.909 28.893">
  <path id="Path_10" data-name="Path 10" d="M-3212.591,1883.693h-14.416l-2.751,6.061h-5.385l11.792-25.176a4.641,4.641,0,0,1,4.2-2.672h1.735l13.006,27.848h-5.387Zm-12.584-4.09h10.737l-5.407-11.744Z" transform="translate(3235.143 -1861.383)" fill="#446179"/>
  <path id="Path_11" data-name="Path 11" d="M-3181.418,1885.492v4.262h-12.947a3.2,3.2,0,0,1-3.2-3.2v-24.651h4.569v23.586Z" transform="translate(3235.143 -1861.383)" fill="#446179"/>
  <path id="Path_12" data-name="Path 12" d="M-3140.228,1879.447h-6.479v10.307h-4.57V1865.08a3.174,3.174,0,0,1,3.173-3.174h8.864c5.365,0,9.356,3.673,9.356,8.81a8.459,8.459,0,0,1-5.662,8.09l6.43,10.948h-5.127Zm-6.479-4.278h7.2c3.026,0,4.974-1.874,4.974-4.492,0-2.59-1.948-4.492-4.974-4.492h-7.2Z" transform="translate(3235.143 -1861.383)" fill="#446179"/>
  <path id="Path_13" data-name="Path 13" d="M-3121.978,1875.829c0-8.247,6.236-14.446,14.693-14.446s14.669,6.189,14.669,14.446-6.223,14.447-14.669,14.447S-3121.978,1884.076-3121.978,1875.829Zm24.713,0a9.786,9.786,0,0,0-10.02-10.049,9.826,9.826,0,0,0-10.042,10.049,9.826,9.826,0,0,0,10.042,10.049A9.786,9.786,0,0,0-3097.265,1875.829Z" transform="translate(3235.143 -1861.383)" fill="#446179"/>
  <path id="Path_14" data-name="Path 14" d="M-3058.234,1861.906v25.746a2.1,2.1,0,0,1-2.1,2.1h-1.928l-16.029-19.885v19.885h-4.76v-24.782a3.066,3.066,0,0,1,3.066-3.066h1.31l15.7,19.556v-19.556Z" transform="translate(3235.143 -1861.383)" fill="#446179"/>
  <g id="Group_9" data-name="Group 9" transform="translate(53.82 0.523)">
    <path id="Path_15" data-name="Path 15" d="M-3169.3,1861.906h-12.025v4.262h10.45v23.586h4.569V1864.9A2.994,2.994,0,0,0-3169.3,1861.906Z" transform="translate(3181.323 -1861.906)" fill="#446179"/>
    <rect id="Rectangle_6" data-name="Rectangle 6" width="8.559" height="4.262" transform="translate(17.22 0)" fill="#00bbe3"/>
  </g>
</svg>
