<svg id="logo" xmlns="http://www.w3.org/2000/svg" width="122.221" height="19.961" viewBox="0 0 122.221 19.961">
  <path id="Path_10" data-name="Path 10" d="M-3219.563,1876.958h-9.959l-1.9,4.187h-3.72l8.147-17.393a3.206,3.206,0,0,1,2.9-1.846h1.2l8.986,19.239h-3.722Zm-8.694-2.826h7.418l-3.736-8.114Z" transform="translate(3235.143 -1861.545)" fill="#fff"/>
  <path id="Path_11" data-name="Path 11" d="M-3186.408,1878.2v2.944h-8.945a2.208,2.208,0,0,1-2.208-2.209v-17.031h3.156V1878.2Z" transform="translate(3223.525 -1861.545)" fill="#fff"/>
  <path id="Path_12" data-name="Path 12" d="M-3143.644,1874.024h-4.476v7.121h-3.157V1864.1a2.193,2.193,0,0,1,2.192-2.193h6.124c3.706,0,6.464,2.537,6.464,6.086a5.844,5.844,0,0,1-3.912,5.589l4.442,7.564h-3.542Zm-4.476-2.956h4.974a3.114,3.114,0,0,0,3.436-3.1,3.125,3.125,0,0,0-3.436-3.1h-4.974Z" transform="translate(3209.217 -1861.545)" fill="#fff"/>
  <path id="Path_13" data-name="Path 13" d="M-3121.978,1871.363a9.808,9.808,0,0,1,10.151-9.98,9.8,9.8,0,0,1,10.134,9.98,9.8,9.8,0,0,1-10.134,9.981A9.809,9.809,0,0,1-3121.978,1871.363Zm17.073,0a6.761,6.761,0,0,0-6.923-6.943,6.788,6.788,0,0,0-6.937,6.943,6.788,6.788,0,0,0,6.938,6.943A6.761,6.761,0,0,0-3104.9,1871.363Z" transform="translate(3200.16 -1861.383)" fill="#fff"/>
  <path id="Path_14" data-name="Path 14" d="M-3065.906,1861.906v17.787a1.452,1.452,0,0,1-1.452,1.452h-1.332l-11.074-13.738v13.738h-3.289v-17.121a2.119,2.119,0,0,1,2.118-2.118h.905l10.847,13.51v-13.51Z" transform="translate(3188.127 -1861.545)" fill="#fff"/>
  <g id="Group_9" data-name="Group 9" transform="translate(37.182 0.361)">
    <path id="Path_15" data-name="Path 15" d="M-3173.015,1861.906h-8.308v2.944h7.219v16.295h3.157v-17.17A2.069,2.069,0,0,0-3173.015,1861.906Z" transform="translate(3181.323 -1861.906)" fill="#fff"/>
    <rect id="Rectangle_6" data-name="Rectangle 6" width="5.913" height="2.944" transform="translate(11.896 0)" fill="#00bbe3"/>
  </g>
</svg>
